<svg width="343" height="188" viewBox="0 0 343 188" fill="none" xmlns="http://www.w3.org/2000/svg">
<path d="M0.720695 133.748V122.137L94.193 74.5299V93.1082L22.4922 127.652L23.0728 126.491V129.394L22.4922 128.233L94.193 162.777V181.355L0.720695 133.748ZM342.261 133.748L248.789 181.355V162.777L320.49 128.233L319.909 129.394V126.491L320.49 127.652L248.789 93.1082V74.5299L342.261 122.137V133.748Z" fill="black"/>
<path d="M229.675 89.7064H216.603L216.404 187.197L198.243 179.414V165.145C187.466 179.048 176.888 186 166.511 186C159.925 186 152.74 183.239 144.957 177.718C138.305 172.995 132.783 167.473 128.392 161.153C123.204 153.703 120.642 146.451 120.709 139.4C120.775 132.947 124.334 125.463 131.386 116.948C139.302 107.369 148.849 102.579 160.025 102.579C167.143 102.579 174.294 105.606 181.479 111.659C183.674 113.456 189.262 119.243 198.243 129.022V89.7064H112.826V77.7321H198.243C198.243 63.9616 197.078 53.1847 194.75 45.4014C191.291 33.8263 183.574 20.0558 171.6 4.09C171.334 3.95695 171.201 3.42476 171.201 2.49343C171.201 1.69514 171.4 1.16294 171.799 0.896848H190.858C208.022 19.8562 216.603 45.468 216.603 77.7321H229.675V89.7064ZM193.453 135.109C193.453 129.92 190.626 125.463 184.971 121.738C179.915 118.412 174.66 116.748 169.205 116.748C165.213 116.748 160.224 118.611 154.237 122.336C141.198 130.452 134.679 140.032 134.679 151.075C134.679 157.129 136.309 162.384 139.568 166.841C143.161 171.83 147.851 174.325 153.638 174.325C159.625 174.325 166.012 171.598 172.797 166.143C177.52 162.351 181.911 157.694 185.969 152.173C190.958 145.387 193.453 139.699 193.453 135.109Z" fill="#296DFF"/>
</svg>
